<svg xmlns="http://www.w3.org/2000/svg" viewBox="0 0 272.997 272.997" xml:space="preserve" style="fill: white" >
  <path  d="M266.894 18.732 254.166 6.005A20.367 20.367 0 0 0 239.67 0a20.366 20.366 0 0 0-14.495 6.005 20.324 20.324 0 0 0-5.764 11.505c-20.618 15.555-39.67 31.749-65.993 58.072-32.788 32.787-61.397 65.84-80.559 93.07a335.543 335.543 0 0 0-5.383 7.879l-.965-.965c-.833-.832-1.87-1.291-2.922-1.291-1.395 0-2.683.811-3.445 2.167L48.31 197.5l-.736-.736c-.735-.735-1.876-1.174-3.052-1.174-.622 0-1.223.126-1.736.364l-.126.07c-.177.115-17.695 11.513-26.798 12.475-1.821.192-3.171 2.398-3.635 3.834l-.046.245c-.025.419-2.683 42.012-11.631 54.423-.629.874-.588 2.135.122 3.75l.065.151 1.338 1.462.188.085c.557.25 1.4.548 2.263.548.544 0 1.028-.119 1.438-.354 13.691-7.858 54.156-11.713 54.563-11.751l.214-.044c1.344-.434 3.572-1.794 3.83-3.599 1.216-8.517 12.38-26.673 12.492-26.855l.057-.104c.707-1.525.352-3.629-.81-4.788l-.748-.748 21.057-11.833c1.189-.669 1.967-1.745 2.133-2.951.166-1.206-.292-2.451-1.257-3.416l-.972-.972c27.369-18.092 63.889-48.868 100.957-85.935 26.36-26.36 42.527-45.412 58.216-66.203a20.336 20.336 0 0 0 11.197-5.718c7.995-7.996 7.995-21.001.001-28.994zM45.388 243.386c-4.338 4.338-11.372 4.338-15.71 0-4.338-4.339-4.338-11.372 0-15.711 4.338-4.338 11.372-4.338 15.71 0 4.339 4.339 4.339 11.372 0 15.711z"/>
</svg>